<svg xmlns="http://www.w3.org/2000/svg" style="display: none;">
        <symbol id="m48-accuracy" width="64" height="64" viewBox="0 0 64 64">
          <title>NVIDIA Reflex low-latency platform</title>
          <desc>
            An icon depicting accuracy as an archery arrow hitting the center of
            a target.
          </desc>
          <rect
            id="m48-accuracy-rect"
            width="64"
            height="64"
            fill="none"
          ></rect>
          <path
            id="m48-accuracy-path"
            d="M56.27799,14.36654l-4.7513-.95052,1.32161-1.32161-.94271-.94336-1.29167,1.29167-.9349-4.67578-6.72266,6.72135c-3.2832-2.05794-7.05518-3.15495-10.95638-3.15495-11.39583,0-20.66667,9.27083-20.66667,20.66667s9.27083,20.66667,20.66667,20.66667,20.66667-9.27083,20.66667-20.66667c0-3.875-1.08301-7.63346-3.11914-10.90299l6.73047-6.73047Zm-6.63216,.0332l3.92773,.78516-5.4668,5.4668-3.92708-.78516-.77246-3.85938,.16585-.24935,5.28695-5.28646,.78581,3.92839Zm1.6875,17.60026c0,10.66016-8.67318,19.33333-19.33333,19.33333s-19.33333-8.67318-19.33333-19.33333S21.33984,12.66667,32,12.66667c3.54655,0,6.97868,.97005,9.9873,2.79102l-.04199,.04167,.93652,4.67643-1.48079,1.48047c-2.48796-2.26302-5.78092-3.65625-9.40104-3.65625-7.7194,0-14,6.2806-14,14s6.2806,14,14,14,14-6.2806,14-14c0-3.62044-1.39307-6.91276-3.65625-9.40104l1.44987-1.44987,4.75195,.94987,.0306-.0306c1.79867,2.99544,2.75716,6.41081,2.75716,9.93164Zm-19.05713,.66667l4.39079-4.39063c.82113,1.02604,1.33301,2.3099,1.33301,3.72396,0,3.30859-2.69141,6-6,6s-6-2.69141-6-6,2.69141-6,6-6c1.41374,0,2.69759,.51172,3.72428,1.33333l-4.39095,4.39063v.94271h.94287Zm4.41292-6.29883c-1.27214-1.06055-2.9069-1.70117-4.68913-1.70117-4.04362,0-7.33333,3.28971-7.33333,7.33333s3.28971,7.33333,7.33333,7.33333,7.33333-3.28971,7.33333-7.33333c0-1.78255-.6403-3.41667-1.70133-4.68945l3.76937-3.76888c2.02246,2.24479,3.2653,5.20573,3.2653,8.45833,0,6.98438-5.68229,12.66667-12.66667,12.66667s-12.66667-5.68229-12.66667-12.66667,5.68229-12.66667,12.66667-12.66667c3.2526,0,6.21322,1.24284,8.45866,3.26563l-3.76953,3.76888Z"
            fill="#76b900"
          ></path>
        </symbol>
        </svg>