<svg xmlns="http://www.w3.org/2000/svg" style="display: none;">
        <symbol
          id="m48-nvidia-gpu-cloud-ngc-catalog"
          width="64"
          height="64"
          viewBox="0 0 64 64"
        >
          <title>NVIDIA DLSS 3</title>
          <desc>
            An icon depicting an articial intelligence accelerated software
            stack using NVIDIA technologies.
          </desc>
          <rect
            id="m48-nvidia-gpu-cloud-ngc-catalog-rect"
            width="64"
            height="64"
            fill="none"
          ></rect>
          <path
            id="m48-nvidia-gpu-cloud-ngc-catalog-path"
            d="M55.269,38.729V7.5H12.962v4.625h-4.231v4.284H4.5V49.076H41.423c.87025,4.2527,4.57007,7.33547,8.91,7.424,5.19275-.14285,9.29182-4.45878,9.167-9.652,.0231-3.24046-1.56171-6.2816-4.231-8.119ZM14.372,8.985H53.859v28.956c-.89434-.39129-1.84783-.63025-2.821-.707V12.125H14.372v-3.14Zm-4.231,4.625H49.628v23.624c-.97317,.07675-1.92666,.31571-2.821,.707V16.409H10.141v-2.799ZM5.91,47.591V17.891H45.4v20.791h.073c-2.7105,1.83052-4.3247,4.89637-4.3,8.167,0,.251,.018,.5,.035,.742H5.91Zm44.423,7.424c-4.51057,.23306-8.35604-3.23454-8.5891-7.74511-.23307-4.51057,3.23454-8.35604,7.7451-8.5891,4.51057-.23307,8.35604,3.23454,8.58911,7.74511,.00726,.14058,.01089,.28133,.01089,.4221,.10579,4.39405-3.36234,8.04597-7.756,8.167Zm4.237-12.186l1,1.05-6.638,6.989-3.818-4.019,1-1.05,2.821,2.97,5.635-5.94Zm-19.85-12.529c1.28876-.07061,2.27626-1.1726,2.20565-2.46135-.0652-1.19009-1.01556-2.14044-2.20565-2.20565-.59316,.00291-1.15904,.24952-1.565,.682l-5.317-2.8c.0176-.10617,.02796-.21342,.031-.321,.05815-1.22359-.88663-2.26264-2.11022-2.32078-1.22359-.05815-2.26263,.88663-2.32078,2.11022-.00333,.07015-.00333,.14042,0,.21056,.00313,.1079,.01349,.21548,.031,.322l-5.369,2.827c-.40024-.40541-.94531-.63496-1.515-.638-1.28876,.07061-2.27626,1.1726-2.20565,2.46135,.06521,1.19009,1.01556,2.14044,2.20565,2.20565,.20685-.00279,.41212-.0365,.609-.1l1.565,2.472h0l-1.6,2.529c-.18613-.0568-.37941-.08677-.574-.089-1.28876,.07061-2.27626,1.1726-2.20565,2.46135,.06521,1.19009,1.01556,2.14044,2.20565,2.20565,.59261-.00275,1.15794-.24943,1.563-.682l5.319,2.8c-.01751,.10652-.02787,.21409-.031,.322-.05815,1.22359,.88663,2.26263,2.11022,2.32078,1.22359,.05814,2.26263-.88663,2.32078-2.11022,.00333-.07014,.00333-.14041,0-.21056-.00304-.10758-.0134-.21483-.031-.321l5.319-2.8c.40506,.43257,.97039,.67924,1.563,.682,1.28876-.07061,2.27626-1.1726,2.20565-2.46135-.0652-1.19009-1.01556-2.14044-2.20565-2.20565-.19459,.00223-.38787,.0322-.574,.089l-1.6-2.529h0l1.6-2.53c.18708,.05515,.38097,.08376,.576,.085Zm-2.186,7.534l-4.82,2.538,1.993-3.146,.722-1.14,2.106,1.108c-.04129,.21167-.04129,.42933,0,.641l-.001-.001Zm-13.761-.641l2.106-1.108,2.715,4.287-4.82-2.538c.04132-.21167,.04132-.42933,0-.641h-.001Zm9.067-4.131c.03942-.21185,.03942-.42915,0-.641l2.106-1.108,.905,1.428-.905,1.428-2.106-1.107Zm-.623-1.973c-.23893-.24711-.53245-.43479-.857-.548v-4.892l2.8,4.419-1.943,1.021Zm-1.563,2.5c-.46826,.0243-.86756-.3356-.89186-.80386-.0243-.46826,.3356-.86756,.80386-.89186,.46826-.0243,.86756,.3356,.89186,.80386,.00076,.01461,.00114,.02923,.00114,.04386,.01175,.45659-.34843,.83646-.805,.849v-.001Zm-4.291,.581l-.905-1.428,.905-1.428,2.107,1.108c-.04132,.21167-.04132,.42933,0,.641l-2.107,1.107Zm2.73-3.081l-1.942-1.022,2.8-4.419v4.893c-.32524,.11288-.61922,.30099-.858,.549v-.001Zm0,3.305c.23832,.24738,.53157,.43512,.856,.548v4.893l-2.8-4.419,1.944-1.022Zm2.266,.548c.32455-.11321,.61807-.30089,.857-.548l1.941,1.022-2.8,4.419,.002-4.893Zm4.07-5.544h0l-2.715-4.287,4.82,2.538c-.01746,.10518-.02782,.21143-.031,.318,.00311,.10857,.01347,.21681,.031,.324l-2.105,1.107Zm-9.55,0l-2.1-1.1c.01231-.08454,.02032-.16965,.024-.255-.00225-.12943-.01462-.2585-.037-.386l4.826-2.541-2.713,4.282Zm13.841-2.279c.46884-.02375,.86816,.33707,.89191,.80591,.02375,.46884-.33707,.86816-.80591,.89191-.46884,.02375-.86816-.33707-.89191-.80591-.00074-.01463-.0011-.02927-.00109-.04391-.01118-.45696,.35004-.83654,.807-.848Zm-9.067-4.771c.46878-.02485,.86896,.33503,.89381,.80381,.02485,.46878-.33502,.86896-.80381,.89381-.46878,.02485-.86895-.33503-.89381-.80381-.00081-.01525-.00121-.03053-.00119-.04581-.01119-.45658,.34944-.836,.806-.848h-.001Zm-9.872,5.69c.02264-.44512,.40184-.7876,.84696-.76496s.7876,.40184,.76496,.84696c-.02185,.42957-.37679,.76651-.80692,.766-.45553-.01362-.81465-.39239-.804-.848h-.001Zm2.866,1.846l1.443,.76h0l-.481,.76-.962-1.52Zm.962,4.2l.481,.76h0l-.794,.419-.649,.342,.962-1.521Zm-3.022,4.284c-.46884,.02375-.86816-.33707-.89191-.80591s.33707-.86816,.80591-.89191c.46884-.02375,.86816,.33707,.89191,.80591,.00072,.01429,.00109,.0286,.00109,.04291,.00895,.45559-.35148,.83299-.807,.845v.004Zm9.067,4.772c-.46878,.02485-.86896-.33503-.89381-.80381-.02485-.46878,.33502-.86895,.80381-.89381,.46878-.02485,.86895,.33503,.89381,.80381,.00081,.01525,.00121,.03053,.00119,.04581,.00896,.45466-.35043,.83146-.805,.844v.004Zm9.872-5.622c-.02264,.44512-.40184,.7876-.84696,.76496s-.7876-.40184-.76496-.84696c.02185-.42957,.37679-.76651,.80692-.766,.45473,.01308,.81397,.39017,.805,.845v.003Zm-2.866-1.918l-.649-.342-.794-.419h0l.481-.76,.962,1.521Zm-1.443-4.956l1.443-.76-.96,1.516-.483-.756Z"
            fill="#76b900"
          ></path>
        </symbol>
        </svg>