<svg xmlns="http://www.w3.org/2000/svg" style="display: none;">
        <symbol
          id="m48-inference-encode"
          width="64"
          height="64"
          viewBox="0 0 64 64"
        >
          <title>NVIDIA Encoder</title>
          <desc>An icon depicting NVENC video encoders.</desc>
          <path
            id="m48-inference-encode-rect"
            d="M0,0H64V64H0V0Z"
            fill="none"
          ></path>
          <path
            id="m48-inference-encode-path"
            d="M52.26294,23.12848h-.5l-9.45117-5.45801h-5.40918l-9.45117-5.45898h-5.40918L12.59106,6.7525H6.3313V57.2475h6.25977l9.45117-5.45898h5.40918l9.45117-5.45898h5.40918l9.45117-5.45801h5.90576V23.12848h-5.40576Zm-1.34717,6.823v6.97101l-2.13818-4.92603,2.13818-4.92603v2.88104ZM13.09155,44.96448V13.74646l3.9502,18.25299-3.9502,18.25299v-5.28796Zm22.96387-4.09399l-2.56201-8.87097,2.56299-8.87-.00098,17.74097Zm1.34717-12.28198v-4.09399h4.05176v4.09399h-4.05176Zm4.05176,1.36401v4.09399h-4.05176v-4.09399h4.05176Zm-4.05176,5.45898h4.05176v4.09399h-4.05176v-4.09399Zm5.40918,4.09399V21.61548l4.5,10.38397-4.5,10.38397v-2.87793Zm.75879-19.53699l7.15186,4.13098-2.68408,6.20001-4.46777-10.33099Zm-2.11621,3.16101h-4.05176v-4.09399h4.05176v4.09399Zm-8.66113,6.43402l-4.40576-15.23499,7.5459,4.354-3.14014,10.88098Zm-10.25098,4.48297v-4.09399h4.05322v4.09399h-4.05322Zm4.05322,1.36499v4.09399h-4.05322v-4.09399h4.05322Zm-4.05322-6.823v-4.09399h4.05322v4.09399h-4.05322Zm0-5.45898v-4.09399h4.05322v4.09399h-4.05322Zm-1.34717,0v21.664l-2.77588-12.79999,2.77588-12.79999v3.93597Zm1.34717,17.742h4.05322v4.09399h-4.05322v-4.09399Zm5.40918,4.09399V17.67047l4.13281,14.32898-4.13281,14.328h0v-1.36194Zm-1.35596-27.29401h-4.05322v-4.09399h4.05322v4.09399Zm-8.86377,11.13501L13.39673,8.79053l7.70801,4.448-3.37305,15.56799Zm0,6.388l3.37305,15.56799-7.70801,4.448,4.33496-20.01599Zm4.81104,11.13501h4.05322v4.09399h-4.05322v-4.09399Zm10.25098-11.89099l3.14014,10.88397-7.5459,4.354,4.40576-15.23798Zm4.60889,6.43298h4.05176v4.09399h-4.05176v-4.09399Zm10.63623-7.16901l2.68408,6.20001-7.15186,4.13202,4.46777-10.33203ZM7.68286,8.11749h4.05078v4.09399H7.68286v-4.09399Zm0,5.45898h4.05078v4.09399H7.68286v-4.09399Zm0,5.45801h4.05078v4.09399H7.68286v-4.09399Zm0,5.45898h4.05078v4.09399H7.68286v-4.09399Zm0,5.45801h4.05078v4.09399H7.68286v-4.09399Zm0,5.45898h4.05078v4.09399H7.68286v-4.09399Zm0,5.45898h4.05078v4.09399H7.68286v-4.09399Zm0,5.45801h4.05078v4.09399H7.68286v-4.09399Zm0,5.45898h4.05078v4.09399H7.68286v-4.09399Zm48.63184-12.28198h-4.05176v-4.09399h4.05176v4.09399Zm0-5.45898h-4.05176v-4.09399h4.05176v4.09399Zm-4.05176-5.45801v-4.09399h4.05176v4.09399h-4.05176Z"
            fill="#76b900"
            fillRule="evenodd"
          ></path>
        </symbol>
        </svg>