<svg version="1.1" xmlns="http://www.w3.org/2000/svg" viewBox="0 0 259.0638851162762 269" width="259.0638851162762" height="269">
  <!-- svg-source:excalidraw -->
  
  <defs>
    <style class="style-fonts">
      @font-face {
        font-family: "Virgil";
        src: url("https://file%2B.vscode-resource.vscode-cdn.net/c%3A/Users/BaoTT/.vscode/extensions/pomdtr.excalidraw-editor-3.5.1/public//dist/excalidraw-assets/Virgil.woff2");
      }
      @font-face {
        font-family: "Cascadia";
        src: url("https://file%2B.vscode-resource.vscode-cdn.net/c%3A/Users/BaoTT/.vscode/extensions/pomdtr.excalidraw-editor-3.5.1/public//dist/excalidraw-assets/Cascadia.woff2");
      }
    </style>
  </defs>
  <rect x="0" y="0" width="259.0638851162762" height="269" fill="#FFFFFF"></rect><g stroke-linecap="round" transform="translate(10 10) rotate(0 119.5 124.5)"><path d="M32 0 M32 0 C71.32 3, 111.93 0.21, 207 0 M32 0 C98.33 -1.18, 164.05 -0.88, 207 0 M207 0 C230.14 -0.56, 239.41 11.3, 239 32 M207 0 C229.68 -0.49, 239.4 11.41, 239 32 M239 32 C239.09 80.4, 238.68 128.83, 239 217 M239 32 C237.29 93.8, 238.85 153.34, 239 217 M239 217 C237.39 239.84, 228.73 247.77, 207 249 M239 217 C239.73 238.59, 228.1 248.66, 207 249 M207 249 C170.21 246.54, 132.87 248.8, 32 249 M207 249 C161.41 250.48, 116.71 249.88, 32 249 M32 249 C11.22 247.48, 1.21 238.3, 0 217 M32 249 C9.03 248.56, 1.51 236.3, 0 217 M0 217 C1.23 176.11, 1.62 134.12, 0 32 M0 217 C-1.05 153.03, -0.1 89.33, 0 32 M0 32 C-0.77 12.53, 12.67 0.12, 32 0 M0 32 C-0.54 10.6, 8.39 0.56, 32 0" stroke="#000000" stroke-width="1" fill="none"></path></g><g stroke-linecap="round" transform="translate(126.57453310981327 10.172767243947277) rotate(0 61.24467600323146 55.90343620270461)"><path d="M27.95 0 M27.95 0 C48.45 -1.12, 69.06 0.36, 94.54 0 M27.95 0 C42.3 -1.21, 58.4 -0.71, 94.54 0 M94.54 0 C114.35 0.27, 124.06 8.77, 122.49 27.95 M94.54 0 C114.23 0.14, 120.33 7.15, 122.49 27.95 M122.49 27.95 C121.73 46.84, 124.5 62.13, 122.49 83.86 M122.49 27.95 C122.71 42.77, 122.75 58.89, 122.49 83.86 M122.49 83.86 C124.06 103.99, 113.65 113.76, 94.54 111.81 M122.49 83.86 C123.27 101.92, 114.32 113.72, 94.54 111.81 M94.54 111.81 C78.23 114.15, 62.52 112.13, 27.95 111.81 M94.54 111.81 C69.02 111.72, 42.62 112.11, 27.95 111.81 M27.95 111.81 C10.91 110.78, -1.64 103.94, 0 83.86 M27.95 111.81 C8.35 110.41, -2.1 104.44, 0 83.86 M0 83.86 C2.1 68.28, 1.65 49.8, 0 27.95 M0 83.86 C-1.28 63.74, -0.68 43.69, 0 27.95 M0 27.95 C-1.12 7.76, 9.56 1.18, 27.95 0 M0 27.95 C0.65 9.13, 8 2.22, 27.95 0" stroke="#FFFFFF" stroke-width="1" fill="none"></path></g></svg>