<svg xmlns="http://www.w3.org/2000/svg" style="display: none;">
        <symbol id="m48-gpu-chip" width="64" height="64" viewBox="0 0 64 64">
          <title>NVIDIA Ada Lovelace Architecture</title>
          <desc>
            An icon depicting a Graphics Processing Unit created by NVIDIA.
          </desc>
          <rect
            id="m48-gpu-chip-rect"
            width="64"
            height="64"
            fill="none"
          ></rect>
          <path
            id="m48-gpu-chip-path"
            d="M40.79,7.5H7.5v49h49V7.5ZM53.53,24.006V39.994l1.485.4V55.015H40.392l-.4-1.485H24.006l-.4,1.485H8.985V40.391l1.485-.4V24.006l-1.485-.4V8.985H23.608l.4,1.485H39.994l.4-1.485H55.015V23.609ZM14.924,14.924h2.97v2.97h-2.97Zm4.455,0h2.97v2.97h-2.97Zm4.455,0H26.8v2.97h-2.97Zm4.455,0h2.97v2.97h-2.97Zm4.455,0h2.97v2.97h-2.97Zm4.455,0h2.97v2.97H37.2Zm4.455,0h2.97v2.97h-2.97Zm4.455,0h2.97v2.97h-2.97ZM14.924,19.379h2.97v2.97h-2.97Zm4.455,0h2.97v2.97h-2.97Zm4.455,0H26.8v2.97h-2.97Zm4.455,0h2.97v2.97h-2.97Zm4.455,0h2.97v2.97h-2.97Zm4.455,0h2.97v2.97H37.2Zm4.455,0h2.97v2.97h-2.97Zm4.455,0h2.97v2.97h-2.97ZM14.924,23.833h2.97V26.8h-2.97Zm4.455,0h2.97V26.8h-2.97Zm4.455,0H26.8V26.8h-2.97Zm4.455,0h2.97V26.8h-2.97Zm4.455,0h2.97V26.8h-2.97Zm4.455,0h2.97V26.8H37.2Zm4.455,0h2.97V26.8h-2.97Zm4.455,0h2.97V26.8h-2.97ZM14.924,28.288h2.97v2.97h-2.97Zm4.455,0h2.97v2.97h-2.97Zm4.455,0H26.8v2.97h-2.97Zm4.455,0h2.97v2.97h-2.97Zm4.455,0h2.97v2.97h-2.97Zm4.455,0h2.97v2.97H37.2Zm4.455,0h2.97v2.97h-2.97Zm4.455,0h2.97v2.97h-2.97ZM14.924,32.742h2.97v2.97h-2.97Zm4.455,0h2.97v2.97h-2.97Zm4.455,0H26.8v2.97h-2.97Zm4.455,0h2.97v2.97h-2.97Zm4.455,0h2.97v2.97h-2.97Zm4.455,0h2.97v2.97H37.2Zm4.455,0h2.97v2.97h-2.97Zm4.455,0h2.97v2.97h-2.97ZM14.924,37.2h2.97v2.97h-2.97Zm4.455,0h2.97v2.97h-2.97Zm4.455,0H26.8v2.97h-2.97Zm4.455,0h2.97v2.97h-2.97Zm4.455,0h2.97v2.97h-2.97Zm4.455,0h2.97v2.97H37.2Zm4.455,0h2.97v2.97h-2.97Zm4.455,0h2.97v2.97h-2.97ZM14.924,41.652h2.97v2.97h-2.97Zm4.455,0h2.97v2.97h-2.97Zm4.455,0H26.8v2.97h-2.97Zm4.455,0h2.97v2.97h-2.97Zm4.455,0h2.97v2.97h-2.97Zm4.455,0h2.97v2.97H37.2Zm4.455,0h2.97v2.97h-2.97Zm4.455,0h2.97v2.97h-2.97ZM14.924,46.106h2.97v2.97h-2.97Zm4.455,0h2.97v2.97h-2.97Zm4.455,0H26.8v2.97h-2.97Zm4.455,0h2.97v2.97h-2.97Zm4.455,0h2.97v2.97h-2.97Zm4.455,0h2.97v2.97H37.2Zm4.455,0h2.97v2.97h-2.97Zm4.455,0h2.97v2.97h-2.97Z"
            fill="#76b900"
          ></path>
        </symbol>
        </svg>