<svg xmlns="http://www.w3.org/2000/svg" style="display: none;">
        <symbol id="m48-ray-tracing" width="64" height="64" viewBox="0 0 64 64">
          <title>Ray Tracing Cores</title>
          <desc>
            An icon depicting ray-tracing as light rays bouncing off a sphere
            into a virtual camera for realistic computer graphics.
          </desc>
          <rect
            id="m48-ray-tracing-rect"
            width="64"
            height="64"
            fill="none"
          ></rect>
          <path
            id="m48-ray-tracing-path"
            d="M31.85246,29.43156c-7.85362-.06069-14.26921,6.25671-14.33023,14.11031-.06053,7.85359,6.25711,14.26936,14.11074,14.33005,7.85313,.06066,14.26921-6.25674,14.32974-14.11031,.00049-.03682,.00049-.07364,.00049-.11046,0-7.81096-6.29993-14.1598-14.11074-14.21959Zm0,1.35361c2.91595,.00151,5.74282,1.00859,8.00274,2.85139,.32432,.64609,.59746,1.31673,.81647,2.00573l2.09653,1.35967c.32285,.53099,.60878,1.08324,.85682,1.65299l-2.65068-1.72352c.10975,.58187,.18406,1.16992,.22196,1.76083l3.07393,1.99567c.09498,.41091,.16979,.82634,.22294,1.24475l-3.24667-2.10954c-.0064,.51374-.0438,1.02664-.11073,1.53604l3.48733,2.26678v.02418c0,.35074-.02018,.69546-.0502,1.03916l-3.58822-2.33433c-.10089,.47037-.22196,.92898-.36271,1.37579l3.74964,2.44217c-.06053,.31949-.14125,.63197-.2318,.94341l-3.8402-2.49861c-.17077,.42398-.36222,.83858-.57433,1.24377l3.97111,2.57923c-.11319,.28923-.24066,.57249-.38289,.84867l-4.0405-2.62965c-.24213,.38602-.49411,.75895-.76578,1.11778l4.15271,2.69716c-.16142,.26105-.33269,.51404-.5138,.76199l-4.21324-2.73949c-.30218,.3457-.62502,.6763-.95771,.98976l4.31364,2.805c-.21162,.23183-.42324,.4576-.65504,.67328l-4.37417-2.84333c-.37452,.30307-.76479,.58599-1.16933,.84766l4.47506,2.91084c-.26182,.20159-.52413,.3951-.80613,.57452l-4.53559-2.95317c-.47098,.25001-.95574,.47375-1.45133,.67027l4.6665,3.03179c-.33269,.16228-.66538,.31143-1.00791,.4445l-4.75755-3.09026c-.6073,.17972-1.22741,.31448-1.8544,.40316l4.93866,3.20515c-.43604,.10261-.877,.182-1.32141,.23786l-5.08876-3.30293c-.17127,.00606-.34253,.02621-.52413,.02621-.74658-.00477-1.49169-.07219-2.22744-.20159l5.46279,3.54783c-.74068-.04463-1.47643-.15524-2.19742-.3306l-6.41017-4.16569c-.17127-.07862-.34253-.16831-.52413-.25198-4.45537-5.54126-3.57444-13.64495,1.96661-18.10011,2.25795-1.81539,5.06219-2.81608,7.95944-2.84022l-.00049,.00003ZM57,12.50269l-6.32946-6.37504-4.97901,5.02039,1.159,1.16918-2.69104,1.35462,5.35206,5.39131,1.3406-2.70827,1.16933,1.16816,4.97852-5.02036Zm-6.32946-4.45999l4.42486,4.45999-3.07393,3.10536-4.4347-4.45999,3.08377-3.10536Zm-1.52171,8.73355l-2.72155-2.73447,1.42131-.71462,2.00598,2.01582-.70573,1.43328Zm-7.21679,.46667h4.03164v4.06289h-1.3406v-1.75074l-8.69814,8.76074L18.81065,13.94403l.85682-1.03513,16.17675,13.58057,7.83148-7.88691h-1.74366v-1.35964Zm0,6.77112h4.03164v4.06289h-1.3406v-1.75074l-3.35642,3.38558-.95771-.95753,3.36626-3.38558h-1.74366l.00049-1.35462ZM11.69475,6.40888c-2.61623,.02341-4.71818,2.16322-4.69456,4.77939,.01624,1.80315,1.05466,3.44079,2.67874,4.22428v3.185h1.3406v.6763h1.3406v-.6763h1.35044v-3.185c2.35638-1.13673,3.3451-3.96846,2.20825-6.3249-.78349-1.62413-2.42085-2.66262-4.22407-2.67877Zm.66538,9.47435v1.35967h-1.3406v-1.35462l1.3406-.00504Zm.53398-1.58845l1.04827-2.09948-1.20969-.60475-1.03793,2.1025-1.04827-2.1025-1.19935,.60475,1.03793,2.09948c-1.73333-.66522-2.59901-2.60953-1.93363-4.34267s2.60934-2.59886,4.34267-1.93363c1.73333,.66525,2.59901,2.60953,1.93363,4.34267-.34155,.88946-1.04433,1.59224-1.93363,1.93363Z"
            fill="#76b900"
            fillRule="evenodd"
          ></path>
        </symbol>
        </svg>