<svg xmlns="http://www.w3.org/2000/svg" style="display: none;">
        <symbol
          id="m48-3d-manipulation"
          width="64"
          height="64"
          viewBox="0 0 64 64"
        >
          <title>NVIDIA Studio</title>
          <desc>
            An icon depicting a 3D manipulator of X Y Z coordinates in creative
            software.
          </desc>
          <rect
            id="m48-3d-manipulation-rect"
            width="64"
            height="64"
            fill="none"
          ></rect>
          <path
            id="m48-3d-manipulation-path"
            d="M46.906,35.607l2.094,7.764-7.824,2.079-1.753-1,6.849-1.819-14.272-8.18-14.272,8.176,6.849,1.819-1.753,1-7.824-2.075,2.1-7.765,1.755-1-1.835,6.793,14.271-8.174V16.873l-5.021,4.974v-2.01l5.73-5.684,5.73,5.684v2.009l-5.014-4.974v16.349l14.271,8.174-1.835-6.795,1.754,1.007Zm8.994,7.952c.63929,.68003,.75752,1.69861,.291,2.507-.46898,.81814-1.42352,1.22624-2.339,1-8.37831,12.06742-24.95286,15.05803-37.02028,6.67972-2.60727-1.81021-4.86951-4.07244-6.67972-6.67972-.91548,.22624-1.87002-.18186-2.339-1-.46808-.80777-.35146-1.82685,.287-2.508C1.8108,30.52087,7.28107,14.85379,20.3182,8.56458c3.01962-1.45669,6.29068-2.3205,9.6358-2.54458,.34265-1.12997,1.53645-1.76823,2.66643-1.42558,.68347,.20725,1.21832,.7421,1.42558,1.42558,13.74497,.99393,24.40361,12.40923,24.454,26.19,.00809,3.93155-.88115,7.81309-2.6,11.349ZM31.285,6.631c0,.39488,.32012,.715,.715,.715s.715-.32012,.715-.715h0c-.01478-.39516-.3471-.70352-.74226-.68874-.37443,.014-.67474,.31431-.68874,.68874h.001ZM10.029,45.615c.33984-.1934,.45855-.62568,.26515-.96552-.00104-.00183-.00209-.00366-.00315-.00549-.19911-.34012-.63517-.45616-.977-.26-.33984,.1934-.45855,.62568-.26515,.96552,.00104,.00183,.00209,.00366,.00315,.00549,.19982,.33919,.63502,.455,.977,.26Zm42.609,.693c-.72498-.9222-.5651-2.25751,.35711-2.98249,.22969-.18057,.49417-.31181,.77689-.38551,.28081-.07384,.57354-.09084,.861-.05,1.60962-3.32979,2.44221-6.98158,2.435-10.68-.04781-13.01651-10.10213-23.8052-23.083-24.769-.45828,1.09601-1.71829,1.61299-2.81429,1.1547-.52172-.21815-.93655-.63298-1.15471-1.1547-12.98087,.9638-23.03519,11.75249-23.083,24.769-.00785,3.69893,.82513,7.35125,2.436,10.681,.2868-.04076,.57886-.02376,.859,.05,1.13512,.29591,1.81542,1.45599,1.51951,2.59111-.0737,.28272-.20494,.5472-.38551,.77689,7.94595,11.39805,23.62737,14.19653,35.02542,6.25058,2.4361-1.69829,4.55229-3.81447,6.25058-6.25058v-.001Zm2.051-1.921h-.007c-.1073-.06108-.22854-.09345-.352-.094-.25451,.00182-.4896,.13642-.62,.355-.19643,.3381-.08158,.77142,.25652,.96785,.00182,.00106,.00365,.00211,.00549,.00315,.34224,.19483,.77752,.07855,.977-.261,.19754-.33617,.08516-.76883-.25101-.96637-.00266-.00156-.00532-.0031-.008-.00463h-.001Z"
            fill="#76b900"
          ></path>
        </symbol>
        </svg>