<svg xmlns="http://www.w3.org/2000/svg" style="display: none;">
        <symbol
          id="m48-live-talk-on-demand"
          width="64"
          height="64"
          viewBox="0 0 64 64"
        >
          <title>NVIDIA Broadcast app</title>
          <desc>
            An icon depicting AI-enhanced audio and video broadcasting on a
            desktop computer.
          </desc>
          <rect
            id="m48-live-talk-on-demand-rect"
            width="64"
            height="64"
            fill="none"
          ></rect>
          <path
            id="m48-live-talk-on-demand-path"
            d="M56.66992,44.66699V14H7.33008v30.66699H27.12988l-1.06982,4h-4.06006v1.33301h20v-1.33301h-4.06006l-1.06982-4h19.7998ZM8.66992,15.33301H55.33008v28H8.66992V15.33301Zm27.89014,33.33398h-9.12012l1.06982-4h6.97998l1.07031,4Zm-26.56006-6.66699H54V16.66699H10v25.33301Zm1.33008-24H52.66992v22.66699H11.33008V18Zm20.66992,16c4.05029,.00214,7.33594-3.2796,7.33789-7.33008s-3.27979-7.33575-7.33008-7.33789c-4.05029-.0022-7.33594,3.2796-7.33789,7.33008v.00592c.00098,4.04816,3.28174,7.32983,7.33008,7.33197Zm0-13.33301c3.31348,0,6,2.68628,6,6s-2.68652,6-6,6-6-2.68628-6-6,2.68652-6,6-6Zm-11.33008,14.66602h26.66016v1.33398H20.66992v1.33301h-1.33984v-1.33301h-2.66016v-1.33398h2.66016v-1.33301h1.33984v1.33301Zm9.33008-12.57898v7.82501l5.87012-3.91199-5.87012-3.91302Zm1.33008,2.49103l2.12988,1.422-2.12988,1.41998v-2.84198Z"
            fill="#76b900"
            fillRule="evenodd"
          ></path>
        </symbol>
        </svg>