<?xml version="1.0" encoding="UTF-8"?><svg xmlns="http://www.w3.org/2000/svg" viewBox="0 0 1250 703"><g id="BOUNDING_RECT_1250x703_"><rect width="1250" height="703" fill="none"/></g><g id="INSTRUCTIONS"><path d="m1114.5081,297.9488h-68.3519c-5.7946,0-10.4919,4.6973-10.4919,10.4918v86.1187c0,5.7945,4.6973,10.4919,10.4919,10.4919h68.3519c5.7945,0,10.4919-4.6974,10.4919-10.4919v-86.1187c0-5.7945-4.6974-10.4918-10.4919-10.4918Zm-57.8743,23.7205c2.0048-3.4097,4.5738-5.7453,7.8149-6.674.869-.249,1.7777-.3603,2.6686-.363l26.8758-.0216c2.3629-.0047,4.4684.8756,6.3755,2.4441l-13.6034,12.891h-17.3595v8.5572h-15.3047l-.0103-6.8928c-.0729-3.7325.8245-7.0176,2.5431-9.9408Zm51.7098,54.8593c.0472,4.824-1.7714,8.1087-4.933,10.286-1.5409,1.0614-3.2146,1.5635-4.9526,1.565l-46.1319.0095c.0007-3.0729-.021-6.4438.0109-9.5163.0373-3.5744,1.2205-6.5193,3.202-8.8585,1.327-1.5662,2.8088-2.9157,4.2587-4.2948l45.2018-42.8345c.4011.9706.751,1.9848.9797,3.1012.1824.89.2915,1.8309.3008,2.7506.0199,2.0165.037,4.0436-.096,6.0493-.2163,3.2695-1.374,5.9957-3.1048,8.338-1.35,1.8274-2.9681,3.206-4.5293,4.6791l-26.7432,25.2507h36.5379l-.0009,3.4745Z" fill="#fff"/><path d="m979.29,314.5794v28.0854c0,.3961-.3211.7173-.7173.7173h-43.4261c-.3961,0-.7173-.3211-.7173-.7173v-28.0854c0-.3961-.3211-.7173-.7173-.7173h-24.1825c-.3961,0-.7173.3211-.7173.7173v73.8416c0,.3961.3211.7173.7173.7173h24.1825c.3961,0,.7173-.3211.7173-.7173v-28.0852c0-.3961.3211-.7173.7173-.7173h43.4261c.3961,0,.7173.3211.7173.7173v28.0852c0,.3961.3211.7173.7173.7173h24.1826c.3961,0,.7173-.3211.7173-.7173v-73.8416c0-.3961-.3211-.7173-.7173-.7173h-24.1826c-.3961,0-.7173.3211-.7173.7173Z" fill="#fff"/><path d="m401.421,332.9038v-18.3244c0-.3961-.3211-.7173-.7173-.7173h-64.0259c-.2697,0-.5166.1513-.6391.3916l-11.1366,21.8569c-.0514.1009-.0782.2124-.0782.3256v51.9847c0,.3961.3211.7173.7173.7173h75.1625c.3961,0,.7173-.3211.7173-.7173v-18.3242c0-.3961-.3211-.7173-.7173-.7173h-49.5358c-.3961,0-.7173-.3211-.7173-.7173v-8.3264c0-.3961.3211-.7173.7173-.7173h40.9924c.3961,0,.7173-.3211.7173-.7173v-14.8019c0-.3961-.3211-.7173-.7173-.7173h-40.9924c-.3961,0-.7173-.3211-.7173-.7173v-8.3264c0-.3961.3211-.7173.7173-.7173h49.5358c.3961,0,.7173-.3211.7173-.7173Z" fill="#fff"/><path d="m691.1227,313.8617h-27.8725c-.2697,0-.5167.1513-.6391.3916l-37.6236,73.842c-.2431.4772.1035,1.0429.6391,1.0429h27.1407c.2697,0,.5166-.1513.6391-.3916l23.1409-45.4167c.2661-.5222,1.0121-.5222,1.2782,0l23.1409,45.4167c.1225.2403.3694.3916.6391.3916h27.1407c.5356,0,.8823-.5657.6391-1.0429l-37.6236-73.842c-.1225-.2403-.3694-.3916-.6391-.3916Z" fill="#fff"/><path d="m622.1723,314.2537l-16.4901,32.3636c-.2661.5222-1.0121.5222-1.2782,0l-16.4901-32.3636c-.1225-.2403-.3694-.3916-.6391-.3916h-18.4001c-.2697,0-.5166.1513-.6391.3916l-16.4902,32.3636c-.2661.5222-1.0121.5222-1.2782,0l-16.4901-32.3636c-.1225-.2403-.3694-.3916-.6391-.3916h-27.1406c-.5356,0-.8823.5657-.6391,1.0429l37.6242,73.8416c.1225.2403.3694.3916.6391.3916h14.5695c.2697,0,.5166-.1513.6391-.3916l18.4054-36.1225c.2661-.5222,1.0121-.5222,1.2782,0l18.4054,36.1225c.1225.2403.3694.3916.6391.3916h14.5427c.2697,0,.5165-.1512.639-.3915l37.6507-73.8416c.2433-.4772-.1033-1.0431-.639-1.0431h-27.1404c-.2697,0-.5166.1513-.6391.3916Z" fill="#fff"/><path d="m878.4855,313.8621h-56.3585c-2.5825,0-5.0488.3879-7.3123,1.0906-.1864.0579-.3402.1905-.4288.3644l-12.0536,23.6566c-.0514.1009-.0782.2124-.0782.3256v34.2654c0,8.6012,8.8974,15.5736,19.8729,15.5736h56.3585c10.9754,0,19.8729-6.9724,19.8729-15.5736v-13.2288c0-.3961-.3211-.7173-.7173-.7173h-24.1826c-.3961,0-.7173.3211-.7173.7173v5.4573c0,1.9807-1.6057,3.5864-3.5864,3.5864h-37.6974c-1.9807,0-3.5864-1.6057-3.5864-3.5864v-28.5857c0-1.9807,1.6057-3.5864,3.5864-3.5864h37.6974c1.9807,0,3.5864,1.6057,3.5864,3.5864v5.4573c0,.3961.3211.7173.7173.7173h24.1826c.3961,0,.7173-.3211.7173-.7173v-13.2288c0-8.6012-8.8975-15.5738-19.8729-15.5738Z" fill="#fff"/><path d="m802.2411,313.8621h-97.7934c-.5356,0-.8823.5657-.6391,1.0429l9.3367,18.3244c.1225.2403.3694.3916.6391.3916h26.0341c.3961,0,.7173.3211.7173.7173v54.0827c0,.3961.3211.7173.7173.7173h24.1825c.3961,0,.7173-.3211.7173-.7173v-54.0827c0-.3961.3211-.7173.7173-.7173h26.0342c.2697,0,.5166-.1513.6391-.3916l9.3367-18.3244c.2432-.4772-.1035-1.0429-.6391-1.0429Z" fill="#fff"/><path d="m286.3672,388.7463l37.624-73.8413c.2432-.4772-.1035-1.0429-.6391-1.0429h-27.1407c-.2697,0-.5166.1513-.6391.3916l-23.1409,45.4167c-.2661.5222-1.0121.5222-1.2782,0l-23.1409-45.4167c-.1225-.2403-.3694-.3916-.6391-.3916h-27.1407c-.5356,0-.8823.5657-.6391,1.0429l37.624,73.8413c.1225.2403.3694.3916.6391.3916h27.8716c.2697,0,.5166-.1513.6391-.3916Z" fill="#fff"/><path d="m207.9386,315.0242c-.0938-.1841-.2607-.3213-.4607-.3732-1.9647-.5099-4.0635-.7889-6.2464-.7889h-56.3586c-10.9755,0-19.8729,6.9726-19.8729,15.5738v44.1287c0,2.3326.6577,4.5439,1.8313,6.5301.2229.3772.7187.4849,1.0655.2172l22.4413-17.326c.1759-.1358.2789-.3455.2789-.5678v-25.2107c0-1.9807,1.6057-3.5864,3.5864-3.5864h37.6975c1.9807,0,3.5864,1.6057,3.5864,3.5864v28.5857c0,1.9807-1.6057,3.5864-3.5864,3.5864h-32.518c-.1586,0-.3128.0526-.4383.1495l-22.1343,17.0887c-.4551.3514-.334,1.0689.2107,1.253,2.4086.8141,5.0621,1.2675,7.8519,1.2675h56.3586c10.9755,0,19.8729-6.9724,19.8729-15.5736v-32.5287c0-.1132-.0268-.2248-.0782-.3256l-13.0877-25.686Z" fill="#fff"/><path d="m473.3993,343.382h-24.7663c-.3961,0-.7173.3211-.7173.7173v15.0475c0,.3006.1258.5876.3469.7913l31.4868,29.0104c.1324.122.3059.1898.486.1898h32.4274c.6533,0,.9665-.8021.486-1.2448l-30.6888-28.275h.5261c10.9754,0,19.8729-6.9728,19.8729-15.5738v-14.6088c0-8.6012-8.8975-15.5738-19.8729-15.5738h-70.409c-.3961,0-.7173.3211-.7173.7173v73.8416c0,.3961.3211.7173.7173.7173h24.1826c.3961,0,.7173-.3211.7173-.7173v-54.0827c0-.3961.3211-.7173.7173-.7173l35.205.0002c1.9807,0,3.5864,1.6057,3.5864,3.5864v2.588c0,1.9807-1.6057,3.5864-3.5864,3.5864Z" fill="#fff"/><path d="m1018.3322,300.7046h.9898c.5301,0,.9182.0231,1.1654.0705s.4481.1351.6006.2656c.2991.2506.4481.6179.4481,1.1007,0,.7657-.3511,1.2346-1.0545,1.4079l1.4784,1.9784h-1.3132l-1.2543-1.8133v1.8133h-1.0603v-4.823Zm1.0603.8662v1.2658h.1005c.3373,0,.5613-.0335.671-.1005.1721-.1016.2587-.2772.2587-.5243,0-.2391-.0624-.4065-.1883-.5001-.1259-.0947-.3453-.1409-.6595-.1409h-.1825Z" fill="#fff"/><path d="m1019.9041,307.2855c-2.3027,0-4.1694-1.8667-4.1694-4.1694s1.8667-4.1694,4.1694-4.1694,4.1694,1.8667,4.1694,4.1694-1.8667,4.1694-4.1694,4.1694Zm3.4425-4.1694c0-1.9013-1.5413-3.4425-3.4425-3.4425s-3.4425,1.5413-3.4425,3.4425,1.5413,3.4425,3.4425,3.4425,3.4425-1.5413,3.4425-3.4425Z" fill="#fff"/></g></svg>